# xmcd
# 
# Track frame offsets:
#	150
#	19025
#	34613
#	50042
#	67042
#	83427
#	105026
#	130855
#	144699
#	160653
#
# Disc length: 2375 seconds
#
# Revision: 1
# Processed by: cddbd v1.4PL0 Copyright (c) Steve Scherf et al.
# Submitted via: Audio-CD-Archiv 2.10.446
#
DISCID=7609450a
DTITLE=Eric Clapton - Backless
DYEAR=1900
DGENRE=blues
TTITLE0=Walk Out In The Rain
TTITLE1=Watch Out For Lucy
TTITLE2=I'll Make Love To You Anytime
TTITLE3=Roll It
TTITLE4=Tell Me That You Love Me
TTITLE5=If I Don't Be There By Morning
TTITLE6=Early In The Morning
TTITLE7=Promises
TTITLE8=Golden Ring
TTITLE9=Tulsa Time
EXTD=
EXTT0=
EXTT1=
EXTT2=
EXTT3=
EXTT4=
EXTT5=
EXTT6=
EXTT7=
EXTT8=
EXTT9=
PLAYORDER=
